<?xml version="1.0" encoding="utf-8"?>
<!-- Generator: Adobe Illustrator 27.5.0, SVG Export Plug-In . SVG Version: 6.00 Build 0)  -->
<svg version="1.1" xmlns="http://www.w3.org/2000/svg" xmlns:xlink="http://www.w3.org/1999/xlink" x="0px" y="0px"
	 viewBox="0 0 750 500" style="enable-background:new 0 0 750 500;" xml:space="preserve">
<g id="BACKGROUND">
	<rect style="fill:#F9EDD6;" width="750" height="500"/>
</g>
<g id="OBJECTS">
	<g style="opacity:0.73;">
		<path style="fill:#F9EDD6;" d="M700.516,365.383c-3.578-13.859-11.54-26.494-20.96-36.175
			c-13.831-14.214-30.71-23.549-46.48-34.641c-15.77-11.092-31.151-24.868-39.062-44.339c-5.898-14.517-7.019-34.645,0.664-48.666
			c8.933-16.302,28.899-21.018,41.756-32.554c10.846-9.732,18.704-25.447,16.986-41.338c-1.914-17.708-14.66-30.933-27.495-40.52
			c-40.649-30.361-87.112-35.736-134.104-38.531c-71.052-4.226-143.843-6.016-214.774,1.76
			c-54.675,5.994-116.084,14.827-159.096,58.956c-16.263,16.695-32.009,43.459-30.781,69.96
			c1.556,33.553,32.444,44.64,51.759,62.968c8.132,7.717,16.461,17.366,16.945,29.623c0.441,11.157-6.058,21.375-14.096,27.372
			c-16.955,12.648-41.803,14.866-60.134,26.639c-15.838,10.172-29.245,25.117-33.084,43.017
			c-5.761,26.863,11.801,54.656,36.21,68.962c24.409,14.306,54.172,17.463,82.78,17.101c60.042-0.76,118.798-15.377,177.8-26.068
			c59.002-10.692,120.552-17.412,178.576-2.599c53.228,13.588,101.114,39.03,151.118,5.023
			c14.287-9.717,25.777-26.563,27.316-45.851C702.906,378.631,702.192,371.872,700.516,365.383z"/>
	</g>
	<g>
		<defs>
			<rect id="SVGID_1_" width="750" height="500"/>
		</defs>
		<clipPath id="SVGID_00000152266493738248081430000016007816142426799760_">
			<use xlink:href="#SVGID_1_"  style="overflow:visible;"/>
		</clipPath>
		<g style="clip-path:url(#SVGID_00000152266493738248081430000016007816142426799760_);">
			<g>
				<line style="fill:none;stroke:#FFFFFF;stroke-miterlimit:10;" x1="665.473" y1="160.318" x2="643.748" y2="172.861"/>
				<polygon style="fill:none;stroke:#FFFFFF;stroke-miterlimit:10;" points="688.334,93.255 711.196,80.055 734.057,93.255 
					734.057,119.653 711.196,132.852 688.334,119.653 				"/>
				<polygon style="fill:none;stroke:#FFFFFF;stroke-miterlimit:10;" points="642.611,93.255 665.473,80.055 688.334,93.255 
					688.334,119.653 665.473,132.852 642.611,119.653 				"/>
				<polygon style="fill:#FFFFFF;" points="654.648,100.204 665.473,93.955 676.297,100.204 676.297,112.703 665.473,118.952 
					654.648,112.703 				"/>
				<polygon style="fill:none;stroke:#FFFFFF;stroke-miterlimit:10;" points="598.024,172.861 620.886,159.662 643.748,172.861 
					643.748,199.259 620.886,212.458 598.024,199.259 				"/>
				<polygon style="fill:#FFFFFF;" points="609.983,179.765 620.886,173.471 631.789,179.765 631.789,192.355 620.886,198.65 
					609.983,192.355 				"/>
				<polygon style="fill:none;stroke:#FFFFFF;stroke-miterlimit:10;" points="665.473,133.92 688.334,120.721 711.196,133.92 
					711.196,160.318 688.334,173.517 665.473,160.318 				"/>
				<polygon style="fill:none;stroke:#FFFFFF;stroke-miterlimit:10;" points="619.75,53.657 642.611,40.458 665.473,53.657 
					665.473,80.055 642.611,93.255 619.75,80.055 				"/>
				<polygon style="fill:#FFFFFF;" points="627.67,-0.792 642.611,-9.418 657.553,-0.792 657.553,16.461 642.611,25.088 
					627.67,16.461 				"/>
				<line style="fill:none;stroke:#FFFFFF;stroke-miterlimit:10;" x1="642.611" y1="40.458" x2="642.611" y2="7.993"/>
				<polyline style="fill:none;stroke:#FFFFFF;stroke-miterlimit:10;" points="620.886,212.458 620.886,295.136 785.209,295.136 
									"/>
			</g>
		</g>
		<g style="clip-path:url(#SVGID_00000152266493738248081430000016007816142426799760_);">
			<g>
				<line style="fill:none;stroke:#FFFFFF;stroke-miterlimit:10;" x1="41.38" y1="303.409" x2="65.465" y2="289.504"/>
				<polygon style="fill:none;stroke:#FFFFFF;stroke-miterlimit:10;" points="16.035,377.758 -9.311,392.391 -34.656,377.758 
					-34.656,348.492 -9.311,333.859 16.035,348.492 				"/>
				<polygon style="fill:none;stroke:#FFFFFF;stroke-miterlimit:10;" points="66.725,377.758 41.38,392.391 16.035,377.758 
					16.035,348.492 41.38,333.859 66.725,348.492 				"/>
				<polygon style="fill:#FFFFFF;" points="53.38,370.053 41.38,376.982 29.379,370.053 29.379,356.197 41.38,349.269 
					53.38,356.197 				"/>
				<polygon style="fill:none;stroke:#FFFFFF;stroke-miterlimit:10;" points="116.155,289.504 90.81,304.137 65.465,289.504 
					65.465,260.238 90.81,245.605 116.155,260.238 				"/>
				<polygon style="fill:#FFFFFF;" points="102.898,281.849 90.81,288.828 78.723,281.849 78.723,267.892 90.81,260.913 
					102.898,267.892 				"/>
				<polygon style="fill:none;stroke:#FFFFFF;stroke-miterlimit:10;" points="41.38,332.675 16.035,347.308 -9.311,332.675 
					-9.311,303.409 16.035,288.776 41.38,303.409 				"/>
				<polygon style="fill:none;stroke:#FFFFFF;stroke-miterlimit:10;" points="92.07,421.657 66.725,436.29 41.38,421.657 
					41.38,392.391 66.725,377.758 92.07,392.391 				"/>
				<polygon style="fill:#FFFFFF;" points="83.289,482.022 66.725,491.585 50.16,482.022 50.16,462.894 66.725,453.331 
					83.289,462.894 				"/>
				<line style="fill:none;stroke:#FFFFFF;stroke-miterlimit:10;" x1="66.725" y1="436.29" x2="66.725" y2="472.282"/>
				<polyline style="fill:none;stroke:#FFFFFF;stroke-miterlimit:10;" points="90.81,245.605 90.81,153.945 -91.365,153.945 				"/>
			</g>
		</g>
		<g style="clip-path:url(#SVGID_00000152266493738248081430000016007816142426799760_);">
			<g>
				<g>
					<path style="opacity:0.73;fill:#F9EDD6;" d="M180.849,47.722h-57.205c-2.71,0-4.906,2.101-4.906,4.693v25.954l-0.047,15.414
						l7.29-8.763h54.868c2.709,0,4.906-2.101,4.906-4.692V52.415C185.755,49.823,183.559,47.722,180.849,47.722z"/>
					<g>
						<path style="fill:#FFFFFF;" d="M163.546,65.947c-0.005,1.715,1.342,3.109,3.008,3.114c1.666,0.005,3.021-1.38,3.026-3.095
							c0.005-1.715-1.341-3.109-3.008-3.114C164.906,62.847,163.551,64.232,163.546,65.947z"/>
						<path style="fill:#FFFFFF;" d="M150.605,65.906c-0.005,1.715,1.341,3.109,3.008,3.114c1.666,0.006,3.021-1.38,3.026-3.095
							c0.005-1.714-1.341-3.109-3.007-3.114C151.965,62.805,150.61,64.191,150.605,65.906z"/>
						<path style="fill:#FFFFFF;" d="M137.664,65.864c-0.005,1.715,1.341,3.109,3.008,3.114c1.666,0.005,3.021-1.38,3.026-3.095
							c0.005-1.715-1.341-3.109-3.008-3.114C139.024,62.764,137.669,64.149,137.664,65.864z"/>
					</g>
				</g>
			</g>
			<g>
				<g>
					<path style="opacity:0.73;fill:#F9EDD6;" d="M668.306,333.595h57.205c2.71,0,4.906,2.101,4.906,4.693v25.954l0.047,15.414
						l-7.29-8.763h-54.868c-2.709,0-4.906-2.101-4.906-4.693v-27.912C663.4,335.695,665.597,333.595,668.306,333.595z"/>
					<g>
						<path style="fill:#FFFFFF;" d="M685.61,351.819c0.005,1.715-1.342,3.109-3.008,3.114c-1.666,0.005-3.021-1.38-3.026-3.095
							c-0.005-1.715,1.341-3.109,3.008-3.114C684.249,348.719,685.604,350.104,685.61,351.819z"/>
						<path style="fill:#FFFFFF;" d="M698.55,351.778c0.005,1.715-1.341,3.109-3.008,3.114c-1.666,0.006-3.021-1.38-3.026-3.095
							c-0.005-1.714,1.341-3.109,3.007-3.114C697.19,348.677,698.545,350.063,698.55,351.778z"/>
						<path style="fill:#FFFFFF;" d="M711.491,351.737c0.005,1.715-1.341,3.109-3.008,3.114c-1.666,0.005-3.021-1.38-3.026-3.095
							c-0.005-1.715,1.341-3.109,3.008-3.115C710.131,348.636,711.486,350.021,711.491,351.737z"/>
					</g>
				</g>
			</g>
			<path style="opacity:0.73;fill:#F9EDD6;" d="M764.774,185.229l-15.93-2.555l9.458-13.071l-10.958-10.958l-13.071,9.458
				l-2.555-15.93H716.22l-2.555,15.93l-13.071-9.458l-10.958,10.958l9.458,13.071l-15.93,2.555v15.497l15.93,2.555l-9.458,13.071
				l10.958,10.958l13.071-9.458l2.555,15.93h15.497l2.555-15.93l13.071,9.458l10.958-10.958l-9.458-13.071l15.93-2.555V185.229z
				 M723.969,215.6c-12.493,0-22.621-10.128-22.621-22.621c0-12.493,10.128-22.621,22.621-22.621s22.621,10.128,22.621,22.621
				C746.59,205.472,736.462,215.6,723.969,215.6z"/>
			<path style="opacity:0.73;fill:#F9EDD6;" d="M708.083,482.767l-16.892-2.709l10.029-13.86l-11.62-11.62l-13.86,10.029
				l-2.709-16.892h-16.433l-2.709,16.892l-13.86-10.029l-11.62,11.62l10.029,13.86l-16.892,2.709v16.433l16.892,2.709l-10.029,13.86
				l11.62,11.62l13.86-10.029l2.709,16.892h16.433l2.709-16.892l13.86,10.029l11.62-11.62l-10.029-13.86l16.892-2.709V482.767z
				 M666.761,514.893c-14.78,1.166-27.022-11.076-25.857-25.856c0.917-11.627,10.336-21.047,21.963-21.963
				c14.78-1.165,27.021,11.076,25.857,25.856C687.808,504.556,678.388,513.976,666.761,514.893z"/>
			<path style="opacity:0.73;fill:#F9EDD6;" d="M81.973,66.181L59.521,62.58l13.33-18.423L57.406,28.712l-18.423,13.33
				l-3.601-22.453H13.539L9.938,42.042l-18.423-13.33L-23.93,44.157L-10.6,62.58l-22.453,3.601v21.842l22.453,3.601l-13.33,18.423
				l15.445,15.445l18.423-13.33l3.601,22.452h21.842l3.601-22.452l18.423,13.33l15.445-15.445L59.52,91.625l22.453-3.601V66.181z
				 M24.46,108.985c-17.609,0-31.883-14.274-31.883-31.883c0-17.609,14.274-31.883,31.883-31.883
				c17.609,0,31.883,14.275,31.883,31.883C56.344,94.711,42.069,108.985,24.46,108.985z"/>
		</g>
	</g>
	<g>
		<g>
			<g>
				<g>
					<path style="fill:#CDDAF5;" d="M608.979,413.837H141.021V117.629c0-9.17,7.434-16.604,16.604-16.604h434.749
						c9.17,0,16.604,7.434,16.604,16.604V413.837z"/>
					<path style="fill:#E9F0FF;" d="M146.002,408.857V117.63c0-6.409,5.214-11.623,11.623-11.623h434.749
						c6.408,0,11.623,5.214,11.623,11.623v291.227H146.002z"/>
					<path style="fill:#72BAB5;" d="M164.267,377.724V137.139c0-7.107,5.761-12.868,12.868-12.868h395.729
						c7.107,0,12.868,5.761,12.868,12.868v240.585c0,7.107-5.761,12.868-12.868,12.868H177.135
						C170.029,390.592,164.267,384.831,164.267,377.724z"/>
				</g>
				<g>
					<rect x="104.749" y="413.837" style="fill:#E9F0FF;" width="540.502" height="14.258"/>
					<path style="fill:#CDDAF5;" d="M619.827,442.347H130.173c-10.378,0-20.009-5.398-25.424-14.251l0,0h540.502l0,0
						C639.836,436.948,630.205,442.347,619.827,442.347z"/>
					<path style="fill:#9FBBF5;" d="M410.489,420.966h-70.978c-3.937,0-7.129-3.192-7.129-7.129l0,0h85.236l0,0
						C417.618,417.775,414.426,420.966,410.489,420.966z"/>
				</g>
			</g>
		</g>
		<g>
			<g>
				<g>
					<g>
						<g>
							<path style="fill:#FFFFFF;" d="M298.86,379.162c-2.901,0-5.26-2.359-5.26-5.261v-61.266h94.984v61.266
								c0,2.901-2.359,5.261-5.26,5.261H298.86z"/>
						</g>
						<g>
							<path style="fill:#0049DB;" d="M387.641,313.579v60.323c0,2.381-1.937,4.318-4.318,4.318H298.86
								c-2.381,0-4.318-1.937-4.318-4.318v-60.323H387.641 M389.527,311.693h-96.87v62.209c0,3.426,2.777,6.204,6.204,6.204h84.463
								c3.426,0,6.204-2.777,6.204-6.204V311.693L389.527,311.693z"/>
						</g>
					</g>
					<g>
						<path style="fill:#0049DB;" d="M389.527,307.094c0-3.426-2.777-6.204-6.204-6.204H298.86c-3.426,0-6.204,2.777-6.204,6.204
							v4.599h96.87V307.094z"/>
					</g>
					<g>
						<g>
							<path style="fill:#FFFFFF;" d="M370.786,305.68c0,1.242-1.007,2.248-2.248,2.248c-1.242,0-2.248-1.007-2.248-2.248
								c0-1.242,1.006-2.248,2.248-2.248C369.779,303.432,370.786,304.438,370.786,305.68z"/>
						</g>
						<g>
							<path style="fill:#FFFFFF;" d="M377.488,305.68c0,1.242-1.007,2.248-2.248,2.248c-1.242,0-2.248-1.007-2.248-2.248
								c0-1.242,1.007-2.248,2.248-2.248C376.481,303.432,377.488,304.438,377.488,305.68z"/>
						</g>
						<g>
							<path style="fill:#FD4F23;" d="M384.19,305.68c0,1.242-1.006,2.248-2.248,2.248c-1.242,0-2.248-1.007-2.248-2.248
								c0-1.242,1.007-2.248,2.248-2.248C383.184,303.432,384.19,304.438,384.19,305.68z"/>
						</g>
					</g>
				</g>
				<g>
					<path style="fill:#FD4F23;" d="M330.339,338.272l-17.769,9.022l17.769,9.083v5.462l-21.667-11.415v-6.198l21.667-11.415
						V338.272z"/>
					<path style="fill:#FD4F23;" d="M353.732,323.371l-16.048,47.232h-5.659l16.048-47.232H353.732z"/>
					<path style="fill:#FD4F23;" d="M355.242,356.07l17.769-9.022l-17.769-9.082v-5.462l21.667,11.415v6.199l-21.667,11.415V356.07z
						"/>
				</g>
			</g>
			<g>
				<g>
					<g>
						<g>
							<path style="fill:#FFFFFF;" d="M188.304,379.162c-2.901,0-5.26-2.359-5.26-5.261v-61.266h94.984v61.266
								c0,2.901-2.359,5.261-5.26,5.261H188.304z"/>
						</g>
						<g>
							<path style="fill:#0049DB;" d="M277.085,313.579v60.323c0,2.381-1.937,4.318-4.318,4.318h-84.463
								c-2.381,0-4.318-1.937-4.318-4.318v-60.323H277.085 M278.971,311.693h-96.87v62.209c0,3.426,2.777,6.204,6.204,6.204h84.463
								c3.426,0,6.204-2.777,6.204-6.204V311.693L278.971,311.693z"/>
						</g>
					</g>
					<g>
						<path style="fill:#0049DB;" d="M278.971,307.094c0-3.426-2.777-6.204-6.204-6.204h-84.463c-3.426,0-6.204,2.777-6.204,6.204
							v4.599h96.87V307.094z"/>
					</g>
					<g>
						<g>
							<path style="fill:#FFFFFF;" d="M260.23,305.68c0,1.242-1.007,2.248-2.248,2.248s-2.248-1.007-2.248-2.248
								c0-1.242,1.006-2.248,2.248-2.248S260.23,304.438,260.23,305.68z"/>
						</g>
						<g>
							<path style="fill:#FFFFFF;" d="M266.933,305.68c0,1.242-1.007,2.248-2.248,2.248c-1.242,0-2.248-1.007-2.248-2.248
								c0-1.242,1.007-2.248,2.248-2.248C265.926,303.432,266.933,304.438,266.933,305.68z"/>
						</g>
						<g>
							<path style="fill:#FD4F23;" d="M273.635,305.68c0,1.242-1.006,2.248-2.248,2.248c-1.242,0-2.248-1.007-2.248-2.248
								c0-1.242,1.007-2.248,2.248-2.248C272.628,303.432,273.635,304.438,273.635,305.68z"/>
						</g>
					</g>
				</g>
				<g>
					<g>
						
							<rect x="179.351" y="347.611" transform="matrix(6.123234e-17 -1 1 6.123234e-17 -154.5343 548.2239)" style="fill:#FF929C;" width="34.988" height="7.536"/>
					</g>
					<g>
						
							<rect x="204.327" y="357.22" transform="matrix(6.123234e-17 -1 1 6.123234e-17 -148.7751 573.2006)" style="fill:#FF929C;" width="15.771" height="7.536"/>
					</g>
					
						<rect x="206.089" y="343.613" transform="matrix(6.123234e-17 -1 1 6.123234e-17 -119.8006 574.9619)" style="fill:#FF929C;" width="42.984" height="7.536"/>
					
						<rect x="250.366" y="354.555" transform="matrix(6.123234e-17 -1 1 6.123234e-17 -97.4061 619.2391)" style="fill:#FF929C;" width="21.101" height="7.536"/>
					
						<rect x="230.114" y="350.499" transform="matrix(6.123234e-17 -1 1 6.123234e-17 -109.5458 598.987)" style="fill:#FF929C;" width="29.214" height="7.536"/>
				</g>
			</g>
		</g>
		<g>
			<g>
				<g>
					<g>
						<ellipse style="fill:#FFFFFF;" cx="221.916" cy="235.655" rx="11.673" ry="12.068"/>
					</g>
					<g>
						<path style="fill:#FFFFFF;" d="M242.235,278.906h-40.637v-8.416c0-10.55,8.552-19.102,19.102-19.102h2.432
							c10.55,0,19.102,8.552,19.102,19.102V278.906z"/>
					</g>
				</g>
				<g>
					<polygon style="fill:#FFFFFF;" points="194.388,241.733 193.077,241.733 193.077,216.822 219.513,216.822 219.513,217.98 
						194.388,217.98 					"/>
				</g>
				<g>
					<polygon style="fill:#FFFFFF;" points="250.211,286.727 223.775,286.727 223.775,285.569 248.9,285.569 248.9,261.816 
						250.211,261.816 					"/>
				</g>
				<g>
					<rect x="193.732" y="285.569" style="fill:#FFFFFF;" width="18.682" height="1.159"/>
				</g>
				<g>
					<polygon style="fill:#FFFFFF;" points="250.211,223.587 248.9,223.587 248.9,217.98 230.767,217.98 230.767,216.822 
						250.211,216.822 					"/>
				</g>
				<g>
					<rect x="248.9" y="231.691" style="fill:#FFFFFF;" width="1.311" height="6.759"/>
				</g>
			</g>
			<g>
				<rect x="262.377" y="217.401" style="fill:#FFFFFF;" width="67.373" height="4.635"/>
			</g>
			<g>
				<rect x="262.377" y="228.601" style="fill:#FFFFFF;" width="104.495" height="4.635"/>
			</g>
			<g>
				<rect x="262.377" y="237.87" style="fill:#FFFFFF;" width="84.653" height="4.635"/>
			</g>
			<g>
				<rect x="262.377" y="251.774" style="fill:#FF929C;" width="5.214" height="4.635"/>
			</g>
			<g>
				<rect x="273.288" y="251.774" style="fill:#FFFFFF;" width="54.045" height="4.635"/>
			</g>
			<g>
				<rect x="262.377" y="261.237" style="fill:#FF929C;" width="5.214" height="4.635"/>
			</g>
			<g>
				<rect x="273.288" y="261.237" style="fill:#FFFFFF;" width="64.666" height="4.635"/>
			</g>
			<g>
				<rect x="262.377" y="270.698" style="fill:#FF929C;" width="5.214" height="4.635"/>
			</g>
			<g>
				<rect x="273.288" y="270.698" style="fill:#FFFFFF;" width="83.784" height="4.635"/>
			</g>
			<g>
				<rect x="262.377" y="280.161" style="fill:#FF929C;" width="5.214" height="4.635"/>
			</g>
			<g>
				<rect x="273.288" y="280.161" style="fill:#FFFFFF;" width="72.683" height="4.635"/>
			</g>
		</g>
		<g>
			<g>
				<g>
					<g>
						<g>
							<path style="fill:#FFFFFF;" d="M394.218,195.432c-4.689,0-8.503-3.814-8.503-8.503V87.895h175.303v99.034
								c0,4.689-3.814,8.503-8.503,8.503H394.218z"/>
						</g>
						<g>
							<path style="fill:#0049DB;" d="M559.494,89.42v97.509c0,3.848-3.131,6.979-6.979,6.979H394.218
								c-3.848,0-6.979-3.131-6.979-6.979V89.42H559.494 M562.542,86.371H384.19v100.558c0,5.538,4.49,10.028,10.028,10.028h158.297
								c5.538,0,10.028-4.49,10.028-10.028V86.371L562.542,86.371z"/>
						</g>
					</g>
					<g>
						<path style="fill:#0049DB;" d="M562.542,78.937c0-5.538-4.49-10.028-10.028-10.028H394.218
							c-5.538,0-10.028,4.49-10.028,10.028v7.434h178.352V78.937z"/>
					</g>
					<g>
						<g>
							<path style="fill:#FFFFFF;" d="M532.249,76.652c0,2.007-1.627,3.634-3.634,3.634c-2.007,0-3.634-1.627-3.634-3.634
								c0-2.007,1.627-3.634,3.634-3.634C530.621,73.018,532.249,74.645,532.249,76.652z"/>
						</g>
						<g>
							<path style="fill:#FFFFFF;" d="M543.083,76.652c0,2.007-1.627,3.634-3.634,3.634c-2.007,0-3.634-1.627-3.634-3.634
								c0-2.007,1.627-3.634,3.634-3.634C541.456,73.018,543.083,74.645,543.083,76.652z"/>
						</g>
						<g>
							<path style="fill:#FD4F23;" d="M553.916,76.652c0,2.007-1.627,3.634-3.634,3.634c-2.007,0-3.634-1.627-3.634-3.634
								c0-2.007,1.627-3.634,3.634-3.634C552.29,73.018,553.916,74.645,553.916,76.652z"/>
						</g>
					</g>
				</g>
			</g>
		</g>
		<g>
			<g>
				<rect x="426.72" y="360.467" style="fill:#0049DB;" width="135.822" height="5.615"/>
				<rect x="426.72" y="349.638" style="fill:#0049DB;" width="135.822" height="5.615"/>
				<rect x="426.72" y="338.808" style="fill:#0049DB;" width="135.822" height="5.615"/>
				<rect x="536.229" y="327.979" style="fill:#0049DB;" width="26.314" height="5.615"/>
				<rect x="536.229" y="317.15" style="fill:#0049DB;" width="26.314" height="5.615"/>
			</g>
		</g>
		<g>
			<g>
				<g>
					<g>
						<rect x="197.737" y="153.334" style="fill:#0049DB;" width="157.853" height="6.135"/>
					</g>
				</g>
				<g>
					<rect x="292.099" y="153.334" style="fill:#FFFFFF;" width="63.491" height="6.135"/>
				</g>
			</g>
			<g>
				<g>
					<g>
						<rect x="197.737" y="169.823" style="fill:#0049DB;" width="157.853" height="6.135"/>
					</g>
				</g>
				<g>
					<rect x="326.593" y="169.823" style="fill:#FFFFFF;" width="28.997" height="6.135"/>
				</g>
			</g>
			<g>
				<g>
					<g>
						<rect x="197.737" y="186.312" style="fill:#0049DB;" width="157.853" height="6.135"/>
					</g>
				</g>
				<g>
					<rect x="231.725" y="186.312" style="fill:#FFFFFF;" width="123.866" height="6.135"/>
				</g>
			</g>
		</g>
		<g>
			<g>
				<path style="fill:#E9F0FF;" d="M444.967,268.839c0-18.287,15.328-33.111,34.236-33.111v-25.154
					c-33.272,0-60.245,26.086-60.245,58.264c0,5.078,0.675,10.004,1.937,14.7l25.172-6.346
					C445.351,274.523,444.967,271.725,444.967,268.839z"/>
				<path style="fill:#FD4F23;" d="M513.44,268.839c0,7.141-2.345,13.748-6.32,19.156l21.207,14.553
					c6.995-9.517,11.122-21.144,11.122-33.709c0-32.179-26.972-58.265-60.245-58.265v25.154
					C498.112,235.728,513.44,250.552,513.44,268.839z"/>
				<path style="fill:#FF929C;" d="M479.204,327.103c20.279,0,38.205-9.701,49.123-24.555l-21.207-14.553
					c-6.205,8.441-16.391,13.954-27.916,13.954c-15.924,0-29.307-10.515-33.135-24.757l-25.172,6.346
					C427.632,308.6,451.182,327.103,479.204,327.103z"/>
			</g>
			<path style="fill:#FD4F23;" d="M479.204,227.738c-23.471,0-42.498,18.401-42.498,41.101c0,22.699,19.027,41.101,42.498,41.101
				c23.471,0,42.498-18.401,42.498-41.101C521.701,246.139,502.674,227.738,479.204,227.738z M479.204,301.949
				c-18.908,0-34.236-14.824-34.236-33.111c0-18.287,15.328-33.111,34.236-33.111c18.908,0,34.236,14.824,34.236,33.111
				C513.44,287.125,498.112,301.949,479.204,301.949z"/>
			<path style="fill:#E9F0FF;" d="M503.044,268.839c0,12.734-10.674,23.057-23.84,23.057c-13.167,0-23.84-10.323-23.84-23.057
				c0-12.734,10.674-23.057,23.84-23.057C492.37,245.782,503.044,256.105,503.044,268.839z"/>
		</g>
	</g>
	
		<line style="fill:#72BAB5;stroke:#0049DB;stroke-width:2;stroke-linecap:round;stroke-miterlimit:10;" x1="116.155" y1="442.3" x2="633.845" y2="442.3"/>
	<g>
		<g>
			<g>
				<g>
					<g>
						<polygon style="fill:#FD4F23;" points="233.215,423.625 261.511,426.104 262.449,430.177 224.001,439.035 221.989,426.212 
													"/>
						
							<rect x="223.761" y="434.576" transform="matrix(0.9745 -0.2245 0.2245 0.9745 -91.6117 65.7873)" style="fill:#FFFFFF;" width="39.455" height="2.346"/>
						<g>
							<g>
								<path style="fill:#FFFFFF;" d="M245.976,427.463c0.363-0.084,0.655-0.384,0.707-0.775l0.407-3.017
									c0.068-0.506-0.286-0.97-0.79-1.038c-0.512-0.072-0.971,0.287-1.039,0.79l-0.407,3.017c-0.068,0.506,0.286,0.97,0.79,1.038
									C245.76,427.495,245.871,427.487,245.976,427.463z"/>
							</g>
							<g>
								<path style="fill:#FFFFFF;" d="M242.411,427.184c0.363-0.084,0.655-0.384,0.707-0.775l0.407-3.018
									c0.068-0.506-0.286-0.97-0.79-1.038c-0.508-0.072-0.971,0.287-1.038,0.79l-0.407,3.017c-0.068,0.506,0.286,0.97,0.79,1.038
									C242.195,427.216,242.306,427.208,242.411,427.184z"/>
							</g>
							<g>
								<path style="fill:#FFFFFF;" d="M238.849,426.906c0.364-0.084,0.655-0.384,0.707-0.775l0.407-3.017
									c0.068-0.506-0.286-0.97-0.79-1.039c-0.512-0.071-0.971,0.287-1.038,0.79l-0.407,3.017c-0.068,0.506,0.286,0.97,0.79,1.039
									C238.632,426.938,238.743,426.931,238.849,426.906z"/>
							</g>
						</g>
					</g>
					<path style="fill:#FD4F23;" d="M130.65,229.116l4.623-6.051l-15.293-13.205l-4.947,5.979c0,0-7.126,9.399-6.719,13.276
						c0.739,7.053,33.513,30.921,33.513,30.921l3.991-16.689L130.65,229.116z"/>
					<path style="fill:#C23C1B;" d="M145.733,243.697c-0.158-0.332-0.371-0.677-0.647-1.035l-4.271-4.008l-6.57,15.665
						c4.4,3.402,7.581,5.718,7.581,5.718L145.733,243.697z"/>
					<g>
						<g>
							<g>
								<path style="fill:#EEBFB0;" d="M162.165,151.792c0,0-5.039-1.249-4.401-6.48c0.638-5.23,4.831-4.545,6.219-1.706
									c0.591,1.209,0.876,2.441,1.007,3.458l0.995-0.108c0,0,2.411-8.897,5.806-11.042c3.528-2.228,8.939,0.511,11.409,0.655
									c1.694,0.099,5.859-1.317,6.868-0.883c2.717,1.17,2.515,22.827-5.01,28.315C177.533,169.49,165.066,160.201,162.165,151.792
									z"/>
							</g>
							<g>
								<path style="fill:#384980;" d="M177.53,140.545c0,0-0.014,0.003-0.039,0.009c0.015,0.002,0.03,0.004,0.045,0.006
									L177.53,140.545z"/>
							</g>
						</g>
						<path style="fill:#DA8787;" d="M162.594,147.292c0,0-1.16-1.533-2.268-1.112c-1.109,0.421-1.415,4.129,0.841,5.429
							c0,0-1.255-2.37-0.589-3.632C161.244,146.716,162.594,147.292,162.594,147.292z"/>
					</g>
					<polygon style="fill:#FF929C;" points="135.589,426.087 165.219,426.087 177.158,255.251 140.295,255.251 					"/>
					<rect x="155.282" y="255.251" style="fill:#FF929C;" width="27.085" height="37.314"/>
					<path style="fill:#EEBFB0;" d="M162.165,151.792l6.743,21.493c0.766,2.441,3.028,4.102,5.587,4.102l0,0
						c3.338,0,6.001-2.786,5.849-6.12l-0.426-9.391L162.165,151.792z"/>
					<path style="fill:#001F5E;" d="M159.477,128.509c-16.394,4.59-2.063,28.515-1.247,30.237c0.815,1.721,6.25,11.596,17.6,5.844
						c4.865-2.465,6.925-8.126,8.771-13.791c-4.994,0.657-6.687-5.732-3.608-7.007c3.071-1.271,5.067,1.52,5.078,1.537
						c2.803-3.591,3.997-9.641,3.997-9.641s1.594,2.139,1.594,9.048c0,0,5.504-7.208,1.998-15.567c0,0,3.547-13.451-7.387-16.122
						c0,0,0.918,3.756-5.923,5.509C174.881,119.956,160.976,119.681,159.477,128.509z"/>
					<polygon style="fill:#FF929C;" points="239.173,422.076 211.511,428.594 161.788,255.251 201.16,255.251 					"/>
					<g>
						<polygon style="fill:#FD4F23;" points="147.11,426.087 174.127,434.855 174.127,439.035 134.672,439.035 135.589,426.087 
													"/>
						<rect x="134.672" y="439.035" style="fill:#FFFFFF;" width="39.455" height="2.346"/>
						<g>
							<g>
								<path style="fill:#FFFFFF;" d="M158.684,432.692c0.373,0,0.725-0.227,0.863-0.596l1.074-2.849
									c0.18-0.478-0.061-1.009-0.537-1.189c-0.483-0.186-1.011,0.061-1.189,0.537l-1.074,2.849
									c-0.18,0.478,0.061,1.009,0.537,1.189C158.466,432.674,158.576,432.692,158.684,432.692z"/>
							</g>
							<g>
								<path style="fill:#FFFFFF;" d="M155.273,431.62c0.373,0,0.724-0.227,0.863-0.597l1.074-2.849
									c0.18-0.478-0.061-1.009-0.537-1.189c-0.479-0.184-1.011,0.061-1.189,0.537l-1.074,2.849
									c-0.18,0.478,0.061,1.009,0.537,1.189C155.055,431.602,155.164,431.62,155.273,431.62z"/>
							</g>
							<g>
								<path style="fill:#FFFFFF;" d="M151.863,430.549c0.373,0,0.724-0.227,0.863-0.596l1.074-2.849
									c0.18-0.478-0.061-1.009-0.537-1.189c-0.483-0.184-1.011,0.061-1.189,0.537L151,429.301
									c-0.18,0.478,0.061,1.009,0.537,1.189C151.645,430.531,151.755,430.549,151.863,430.549z"/>
							</g>
						</g>
					</g>
					<polyline style="fill:none;stroke:#E06C63;stroke-width:0.9969;stroke-miterlimit:10;" points="178.237,275.996 
						183.499,291.781 192.108,292.724 198.499,287.991 194.939,275.068 					"/>
					<line style="fill:none;stroke:#E19F7C;stroke-miterlimit:10;" x1="145.078" y1="261.021" x2="195.669" y2="261.021"/>
					<polygon style="fill:#FD4F23;" points="168.968,171.189 147.098,179.706 140.295,255.251 201.16,255.251 198.481,178.176 
						179.832,171.189 					"/>
					<g>
						<polygon style="fill:#FD4F23;" points="147.098,179.706 119.979,209.861 135.273,223.065 145.3,211.046 						"/>
					</g>
					<polygon style="fill:#C23C1B;" points="145.937,199.938 130.649,229.116 135.273,223.065 145.3,211.046 145.821,201.955 					
						"/>
					<path style="fill:#FD4F23;" d="M259.832,150.041c0,0-30.525,19.282-31.547,20.235c-1.022,0.954-44.372,2.442-44.372,2.442
						l11.523,24.161c0,0,34.628-6.091,38.608-8.568c3.98-2.477,35.178-27,35.178-27L259.832,150.041z"/>
					<polyline style="fill:none;stroke:#E06C63;stroke-width:0.9969;stroke-miterlimit:10;" points="148.656,275.717 
						147.529,289.166 154.29,294.373 163.68,292.119 165.308,278.096 					"/>
				</g>
			</g>
		</g>
		<polygon style="fill:#FD4F23;" points="144.015,213.944 135.679,278.317 168.824,278.26 172.251,266.711 174.661,278.317 
			210.814,278.317 199.422,205.255 		"/>
		<path style="fill:#C23C1B;" d="M198.824,189.922l0.28,6.298c6.358-1.159,19.553-3.634,27.895-5.689L198.824,189.922z"/>
		<path style="fill:#EEBFB0;" d="M263.804,149.249c0,0,1.628-8.601,3.836-9.357c1.384-0.474,2.572,1.64,2.572,1.64
			s6.881-8.737,8.802-7.68c1.166,0.642-4.37,8.522-4.37,8.522s2.335-2.977,4.253,0.252c0,0,2.063,0.504,1.988,2.299
			c0,0,1.977,1.137,1.535,2.205c-1.342,3.249-12.423,9.234-12.423,9.234L263.804,149.249z"/>
		<polygon style="fill:#EEBFB0;" points="263.804,149.249 261.215,152.295 267.569,158.794 269.998,156.364 		"/>
		<path style="fill:#C23C1B;" d="M256.326,149.543c0.25,0.063,11.707,14.524,11.895,14.524s3.193-2.755,3.193-2.755l-11.769-13.647
			L256.326,149.543z"/>
		<polygon style="fill:#C23C1B;" points="164.321,169.484 184.271,169.484 184.271,173.192 164.321,173.443 		"/>
	</g>
</g>
<g id="TEXTS">
	<text transform="matrix(1 0 0 1 402.665 165.231)" style="fill:#0049DB; font-family:'Montserrat-Black'; font-size:76.0208px;">API</text>
</g>
</svg>
